<?xml version="1.0" standalone="no"?>
<!DOCTYPE svg PUBLIC "-//W3C//DTD SVG 20010904//EN"
 "http://www.w3.org/TR/2001/REC-SVG-20010904/DTD/svg10.dtd">
<svg version="1.0" xmlns="http://www.w3.org/2000/svg"
 width="1560.000000pt" height="254.000000pt" viewBox="0 0 1560.000000 254.000000"
 preserveAspectRatio="xMidYMid meet">
<metadata>
Created by potrace 1.16, written by Peter Selinger 2001-2019
</metadata>
<g transform="translate(0.000000,254.000000) scale(0.100000,-0.100000)"
fill="#000000" stroke="none">
<path d="M6605 1750 l-70 -18 58 -1 57 -1 0 -433 0 -432 -52 -16 -53 -17 145
0 c133 0 142 1 105 13 -22 8 -48 14 -57 14 -16 1 -18 14 -18 129 l0 128 30 29
c16 16 31 27 33 24 47 -60 210 -285 214 -295 3 -8 -5 -15 -24 -19 -80 -18 -74
-23 26 -24 84 -1 102 2 98 13 -3 7 -54 80 -114 162 -60 82 -119 164 -132 183
l-24 33 134 129 134 128 -110 0 c-104 0 -108 -1 -72 -13 47 -17 67 -34 67 -56
0 -10 -57 -73 -127 -140 l-128 -121 -3 310 -2 311 -23 -1 c-12 -1 -53 -9 -92
-19z"/>
<path d="M7855 1750 l-70 -18 58 -1 57 -1 0 -433 0 -433 -57 -16 -58 -16 150
0 c138 0 147 1 110 13 -22 8 -48 14 -57 14 -17 1 -18 30 -18 456 l0 455 -22
-1 c-13 -1 -54 -9 -93 -19z"/>
<path d="M7415 1651 c-222 -106 -309 -353 -214 -606 32 -86 131 -184 212 -209
34 -11 74 -16 96 -13 40 5 174 64 206 91 11 9 -4 5 -34 -9 -113 -56 -229 -41
-320 41 -67 60 -96 112 -122 215 -37 144 -15 300 52 382 50 60 100 82 194 82
125 0 197 -49 213 -146 l7 -42 24 57 c28 68 23 96 -22 130 -82 62 -197 73
-292 27z"/>
<path d="M11687 1664 c-119 -37 -180 -170 -126 -281 29 -61 66 -87 224 -163
77 -37 155 -80 174 -95 86 -74 80 -204 -11 -245 -49 -22 -149 -26 -213 -9 -93
26 -173 116 -206 233 -10 33 -18 56 -18 49 -1 -17 30 -277 33 -280 2 -2 43
-15 92 -28 140 -39 263 -29 334 27 68 53 104 153 81 229 -19 64 -70 104 -235
185 -202 99 -254 150 -243 237 11 82 98 128 204 108 113 -22 179 -86 228 -220
12 -32 14 -20 13 119 0 149 -1 154 -15 118 -9 -21 -19 -38 -24 -38 -4 0 -24
11 -44 24 -65 44 -163 56 -248 30z"/>
<path d="M937 1648 l53 -23 0 -301 c0 -166 -3 -335 -6 -377 l-7 -76 -51 -18
-51 -18 72 -3 c40 -2 106 -2 145 0 l73 3 -53 20 -53 20 -2 183 -2 182 65 -1
65 0 117 -180 c113 -172 117 -180 95 -188 -101 -39 -100 -39 21 -40 88 -1 112
2 106 12 -4 6 -24 37 -45 67 -20 30 -78 117 -128 192 l-91 137 55 27 c206 101
238 302 60 381 -34 14 -77 18 -265 20 l-225 3 52 -22z m354 -9 c49 -17 98 -67
110 -114 16 -56 5 -136 -23 -178 -40 -62 -87 -81 -210 -85 -86 -3 -108 -1
-108 9 -1 8 -2 96 -3 197 l-2 182 101 0 c56 0 116 -5 135 -11z"/>
<path d="M4908 1645 l53 -24 -3 -373 -3 -373 -55 -20 -55 -20 73 -3 c39 -2
105 -2 145 0 l72 3 -53 20 -53 20 -1 179 -1 178 114 -1 c133 -2 140 -6 166
-90 l18 -56 3 83 c2 46 2 118 0 160 l-3 77 -18 -57 c-27 -88 -48 -99 -174 -96
l-104 3 -2 198 -2 197 156 0 c136 0 158 -2 172 -17 8 -10 29 -63 46 -118 l30
-100 0 128 1 127 -287 -1 -288 0 53 -24z"/>
<path d="M2375 1486 c-50 -23 -95 -62 -138 -118 -38 -50 -93 -155 -86 -163 2
-2 23 8 47 22 37 22 42 29 42 61 0 107 103 186 193 148 44 -18 64 -54 68 -125
l4 -54 -95 -68 c-135 -97 -173 -131 -209 -185 -74 -113 -6 -206 132 -180 40 7
105 56 140 103 24 33 37 34 37 2 0 -10 7 -37 16 -59 24 -59 48 -54 131 26 l68
66 -78 -42 -79 -43 4 254 c3 226 1 257 -14 286 -35 64 -122 97 -183 69z m132
-348 c-4 -46 -7 -99 -7 -119 0 -64 -104 -159 -175 -159 -38 0 -75 42 -75 85 0
72 61 154 176 233 85 59 88 58 81 -40z"/>
<path d="M4454 1490 c-45 -14 -119 -83 -145 -137 -30 -62 -30 -143 0 -200 12
-24 26 -43 31 -43 25 0 5 -37 -50 -94 -33 -35 -60 -72 -60 -82 0 -39 76 -94
130 -94 11 0 20 -4 20 -9 0 -5 -38 -41 -85 -81 -97 -82 -103 -99 -54 -154 103
-118 389 -109 493 14 39 47 61 133 46 182 -17 58 -59 73 -259 92 -174 17 -206
27 -217 70 -8 32 0 54 35 94 l28 32 63 -16 c80 -20 119 -10 184 47 110 97 125
235 37 325 l-36 37 34 -7 c19 -3 72 -9 118 -13 72 -5 83 -4 78 9 -5 12 -37 16
-158 22 -84 3 -163 8 -177 11 -14 2 -39 0 -56 -5z m125 -78 c74 -60 99 -152
64 -234 -44 -98 -180 -106 -260 -15 -77 88 -60 239 31 278 41 17 126 2 165
-29z m-32 -592 c161 -18 218 -48 216 -113 -2 -88 -92 -140 -238 -141 -81 -1
-97 3 -150 29 -104 52 -110 106 -23 188 56 52 59 53 195 37z"/>
<path d="M8344 1487 c-106 -35 -190 -144 -214 -278 -37 -201 62 -366 230 -386
43 -5 56 -1 114 31 72 40 102 70 37 37 -118 -61 -265 17 -310 164 -12 37 -21
89 -21 116 l0 49 148 0 c141 0 149 1 185 25 35 24 37 29 37 78 0 59 -23 111
-63 141 -32 24 -104 35 -143 23z m86 -66 c36 -25 60 -79 60 -133 l0 -48 -155
0 c-173 0 -164 -5 -140 76 32 110 152 163 235 105z"/>
<path d="M8855 1480 c-60 -30 -128 -105 -175 -193 -23 -43 -40 -80 -38 -82 2
-2 23 7 46 21 36 21 42 30 42 57 0 43 38 115 72 141 42 30 121 28 154 -6 26
-25 43 -79 44 -133 0 -27 -10 -37 -85 -88 -152 -103 -225 -177 -246 -248 -23
-74 25 -129 112 -129 60 0 122 34 172 92 l42 50 13 -54 c7 -29 20 -61 29 -70
14 -15 19 -16 42 -3 14 7 51 39 81 71 l55 57 -60 -33 c-33 -18 -64 -37 -69
-42 -6 -4 -14 -8 -19 -8 -4 0 -7 116 -5 258 l3 258 -28 37 c-33 43 -48 52
-102 61 -30 5 -50 1 -80 -14z m145 -370 l0 -121 -46 -49 c-72 -77 -143 -101
-184 -60 -69 69 -10 186 154 301 38 27 71 49 73 49 1 0 3 -54 3 -120z"/>
<path d="M11105 1493 c-44 -11 -125 -84 -151 -135 -22 -44 -25 -61 -22 -119 3
-59 8 -73 37 -109 l34 -42 -67 -67 c-36 -36 -66 -74 -66 -82 0 -43 78 -99 139
-99 23 0 15 -10 -68 -88 l-93 -87 15 -36 c31 -74 118 -112 262 -113 84 0 109
4 153 23 113 50 182 185 137 270 -21 42 -67 58 -205 70 -206 18 -221 21 -247
47 -33 33 -29 65 15 115 37 40 40 42 68 31 16 -6 45 -14 65 -18 72 -12 174 58
219 150 39 81 16 195 -48 247 l-27 22 34 -7 c19 -3 72 -9 118 -13 70 -5 83 -4
83 9 0 12 -27 16 -152 22 -84 3 -166 8 -183 10 -16 3 -39 2 -50 -1z m65 -53
c43 -12 103 -72 119 -119 28 -84 2 -173 -59 -203 -73 -37 -158 -15 -214 55
-27 34 -31 48 -34 110 -3 83 8 111 57 144 37 25 75 29 131 13z m30 -620 c140
-17 210 -55 210 -115 0 -37 -42 -87 -95 -114 -43 -23 -61 -26 -147 -25 -87 0
-103 3 -155 30 -102 52 -107 100 -21 183 59 57 63 58 208 41z"/>
<path d="M1782 1480 c-111 -45 -183 -182 -183 -350 0 -153 48 -245 152 -290
96 -41 186 -8 255 92 69 102 90 283 45 400 -44 115 -173 186 -269 148z m94
-59 c100 -46 160 -174 152 -329 -8 -165 -85 -245 -204 -212 -105 30 -173 138
-182 290 -11 204 92 315 234 251z"/>
<path d="M2771 1425 l-66 -65 65 35 c36 19 68 35 73 35 4 0 7 -128 7 -285 0
-264 -1 -285 -17 -286 -10 0 -36 -6 -58 -14 -37 -12 -28 -13 110 -13 l150 0
-57 16 -58 16 0 237 0 237 33 44 c18 24 43 44 55 46 12 2 48 -13 81 -33 62
-38 68 -38 109 -2 29 27 28 35 -3 29 -18 -3 -44 7 -85 32 -33 21 -68 36 -77
34 -9 -2 -37 -28 -61 -58 -25 -30 -48 -56 -52 -58 -4 -2 -11 13 -14 33 -11 56
-27 85 -49 85 -10 0 -49 -29 -86 -65z"/>
<path d="M3600 1424 l-65 -65 63 35 c35 20 68 36 73 36 6 0 8 -115 7 -282 l-3
-282 -55 -17 -55 -17 150 0 150 0 -60 17 -60 18 -3 238 -2 239 32 34 c38 39
78 62 108 62 37 0 89 -31 110 -65 19 -31 21 -50 21 -271 l1 -238 -58 -17 -59
-17 150 0 150 0 -55 17 -55 17 -5 249 c-4 207 -8 255 -22 280 -32 59 -88 95
-147 95 -32 0 -111 -50 -142 -88 -17 -22 -22 -24 -29 -12 -6 8 -10 21 -10 28
0 26 -31 72 -48 72 -10 0 -47 -30 -82 -66z"/>
<path d="M5685 1474 c-136 -70 -207 -276 -160 -459 29 -112 101 -180 202 -192
63 -7 114 18 171 83 53 60 83 139 89 239 11 158 -35 265 -136 317 -61 32 -120
36 -166 12z m112 -58 c92 -43 144 -149 147 -296 1 -93 -17 -159 -56 -199 -65
-66 -155 -62 -233 10 -130 120 -134 413 -6 487 47 28 84 27 148 -2z"/>
<path d="M6090 1424 l-65 -66 50 27 c28 15 60 34 73 42 l22 13 0 -288 0 -288
-57 -16 -58 -16 150 0 150 0 -57 16 -58 16 0 237 0 237 33 44 c18 24 43 44 55
46 12 2 48 -13 82 -34 57 -35 61 -36 84 -20 14 9 30 24 35 35 9 16 7 17 -15
13 -17 -3 -43 7 -84 32 -33 21 -68 36 -77 34 -9 -2 -37 -28 -61 -58 -25 -30
-48 -56 -51 -57 -3 -2 -14 24 -24 57 -24 82 -42 81 -127 -6z"/>
<path d="M9261 1424 l-66 -66 60 33 c33 17 66 37 73 42 9 7 12 -50 12 -280 l0
-289 -57 -16 -58 -16 150 0 c138 0 147 1 110 13 -22 8 -48 14 -57 14 -17 1
-18 20 -18 246 l0 245 41 40 c51 49 94 59 145 34 21 -11 47 -32 58 -47 20 -27
21 -42 21 -270 l0 -241 -55 -17 -55 -17 150 0 150 0 -60 17 -60 18 -3 244 c-3
211 -6 250 -22 286 -20 46 -64 79 -117 89 -50 9 -76 -2 -136 -56 -30 -27 -57
-50 -60 -50 -3 0 -8 15 -11 33 -8 41 -32 77 -53 77 -8 0 -45 -30 -82 -66z"/>
<path d="M10240 1424 l-65 -66 66 36 c36 20 69 36 72 36 4 0 7 -128 7 -285 0
-264 -1 -285 -17 -286 -10 0 -36 -6 -58 -14 -37 -12 -28 -13 110 -13 l150 0
-57 16 -58 16 0 247 0 247 39 35 c22 20 56 39 75 42 47 9 104 -19 131 -65 19
-32 20 -52 20 -270 l0 -235 -60 -17 -60 -16 150 0 150 0 -55 17 -55 17 -5 254
c-5 244 -6 257 -28 292 -25 40 -91 78 -136 78 -37 0 -74 -21 -121 -69 -21 -23
-42 -41 -46 -41 -4 0 -10 15 -14 33 -9 44 -32 77 -53 77 -10 0 -47 -30 -82
-66z"/>
<path d="M12355 1479 c-92 -51 -141 -109 -175 -210 -32 -92 -26 -222 13 -302
43 -87 135 -147 226 -147 36 0 108 36 161 80 21 17 17 16 -24 -5 -54 -28 -110
-32 -167 -11 -92 32 -149 113 -169 236 -17 110 -31 100 139 100 137 0 150 2
181 23 51 34 56 48 43 111 -14 66 -36 100 -80 121 -36 17 -119 19 -148 4z
m113 -56 c29 -18 51 -69 59 -134 l6 -49 -160 0 -160 0 8 46 c10 54 42 109 75
131 52 34 125 37 172 6z"/>
<path d="M12701 1424 l-66 -66 60 33 c33 17 66 37 73 42 9 7 12 -50 12 -281
l0 -290 -57 -15 -58 -15 150 0 c138 0 147 1 110 13 -22 8 -48 14 -57 14 -17 1
-18 19 -18 237 l0 235 30 43 c46 68 64 70 140 21 30 -19 58 -35 61 -35 11 0
69 50 69 59 0 4 -12 6 -27 4 -20 -3 -45 7 -83 31 -30 20 -62 36 -71 36 -10 0
-39 -27 -65 -60 -44 -56 -64 -67 -64 -35 0 8 -7 33 -16 55 -23 57 -44 52 -123
-26z"/>
<path d="M14174 1460 c-62 -35 -98 -76 -133 -150 -23 -50 -26 -67 -26 -175 0
-107 3 -125 24 -165 34 -66 78 -108 138 -130 71 -27 108 -25 168 6 43 23 118
74 90 62 -5 -2 -28 -12 -50 -22 -55 -25 -133 -17 -194 21 -106 66 -160 252
-116 401 36 121 139 169 243 113 30 -16 45 -48 52 -106 l5 -49 36 38 c32 34
36 43 28 69 -31 109 -156 150 -265 87z"/>
<path d="M14678 1469 c-58 -30 -107 -86 -142 -158 -29 -61 -31 -74 -31 -176 0
-100 2 -115 28 -167 31 -64 83 -110 147 -133 64 -23 106 -19 166 16 65 37 79
54 27 32 -51 -21 -131 -12 -187 21 -74 43 -116 126 -131 259 l-7 57 149 0
c139 0 152 2 183 23 51 34 56 48 43 111 -14 66 -36 100 -80 121 -43 21 -120
18 -165 -6z m130 -46 c29 -18 51 -69 59 -134 l6 -49 -162 0 -161 0 6 28 c12
57 35 110 58 131 51 48 139 59 194 24z"/>
<path d="M3290 1462 l55 -18 0 -289 0 -289 -55 -17 -55 -17 145 0 145 0 -55
17 -55 17 -3 307 -2 307 -88 -1 -87 0 55 -17z"/>
<path d="M9933 1462 l57 -16 0 -293 c0 -272 -1 -293 -17 -294 -10 0 -36 -6
-58 -14 -37 -12 -28 -13 110 -13 l150 0 -57 16 -58 16 0 308 0 308 -92 -1 -93
-1 58 -16z"/>
<path d="M13160 1473 c-1 -21 235 -672 241 -665 8 9 239 648 239 662 0 6 -32
10 -82 10 l-83 0 42 -20 c56 -25 69 -54 54 -117 -22 -88 -144 -414 -152 -406
-8 9 -179 483 -179 499 0 5 24 17 53 25 l52 17 -92 1 c-51 0 -93 -2 -93 -6z"/>
<path d="M13733 1462 l57 -16 0 -293 c0 -272 -1 -293 -17 -294 -10 0 -36 -6
-58 -14 -37 -12 -28 -13 110 -13 l150 0 -57 15 -58 15 0 309 0 309 -92 -1 -93
-1 58 -16z"/>
</g>
</svg>
